<svg xmlns="http://www.w3.org/2000/svg" viewBox="0 0 384 512" width="384" height="512"><path d="M318.7 268.7c-.2-36.7 16.4-64.4 50-84.8-18.8-26.9-47.2-41-82.2-41.7-1.2-1.5-2.3-2.8-3.4-4.2-24.4-29.9-60.1-50.2-106.3-50.2-10.3 0-21.3 1.7-31.8 4.6-12.9 3.5-25.2 8.5-35.9 14.6-10.1 5.7-22.1 11-34.1 11-13 0-26.1-5.7-36.8-11.4-11.5-6.1-25.1-11.1-39.2-11.1-41.2 0-75.8 19.3-99.4 53.2C10.6 150.7 0 197.6 0 258c0 33.3 5.4 69.3 16.5 106.3 15.6 51.5 45 105.7 94 105.7 12 0 21.6-3.1 30-6.1 12.3-4.4 24.1-8.6 42-8.6 18.2 0 30 4.1 42.4 8.6 8.3 3 17.9 6.2 29.8 6.2 50.8 0 81.3-55 96.6-105.7 10.3-33.1 15.6-59.5 15.6-59.5zM289.7 0c-18.3 1.4-38.3 10.1-53.1 24.9-14.7 14.7-24.3 34.6-24.3 53.1 0 2.2.2 4.4.5 6.4 20.3-1.6 40.8-10.4 55.6-25.2 14.7-14.7 24.2-34.9 24.2-53.1 0-2.3-.2-4.5-.5-6.1z"/></svg>
