<svg width="25" height="25" viewBox="0 0 25 25" fill="none" xmlns="http://www.w3.org/2000/svg">
<g clip-path="url(#clip0_731_440)">
<path fill-rule="evenodd" clip-rule="evenodd" d="M3.04883 4.31539C3.04883 4.13779 3.11938 3.96747 3.24496 3.84189C3.37054 3.7163 3.54087 3.64575 3.71847 3.64575H5.7274C5.87677 3.64579 6.02184 3.69578 6.13954 3.78775C6.25724 3.87972 6.34081 4.00841 6.37695 4.15334L6.91936 6.32432H22.4685C22.5702 6.32435 22.6706 6.34755 22.762 6.39216C22.8534 6.43677 22.9334 6.50162 22.996 6.58179C23.0587 6.66195 23.1022 6.75533 23.1233 6.85482C23.1444 6.95432 23.1426 7.05733 23.118 7.15602L21.1091 15.1917C21.0729 15.3367 20.9894 15.4654 20.8717 15.5573C20.754 15.6493 20.6089 15.6993 20.4595 15.6993H8.40597C8.2566 15.6993 8.11153 15.6493 7.99383 15.5573C7.87613 15.4654 7.79257 15.3367 7.75642 15.1917L5.20508 4.98504H3.71847C3.54087 4.98504 3.37054 4.91449 3.24496 4.7889C3.11938 4.66332 3.04883 4.493 3.04883 4.31539ZM7.25419 7.66361L8.92829 14.36H19.9372L21.6113 7.66361H7.25419ZM9.74526 18.3779C9.39006 18.3779 9.0494 18.519 8.79824 18.7702C8.54707 19.0213 8.40597 19.362 8.40597 19.7172C8.40597 20.0724 8.54707 20.413 8.79824 20.6642C9.0494 20.9154 9.39006 21.0565 9.74526 21.0565C10.1005 21.0565 10.4411 20.9154 10.6923 20.6642C10.9434 20.413 11.0845 20.0724 11.0845 19.7172C11.0845 19.362 10.9434 19.0213 10.6923 18.7702C10.4411 18.519 10.1005 18.3779 9.74526 18.3779ZM7.06669 19.7172C7.06669 19.0068 7.34889 18.3255 7.85122 17.8231C8.35355 17.3208 9.03486 17.0386 9.74526 17.0386C10.4557 17.0386 11.137 17.3208 11.6393 17.8231C12.1416 18.3255 12.4238 19.0068 12.4238 19.7172C12.4238 20.4276 12.1416 21.1089 11.6393 21.6112C11.137 22.1135 10.4557 22.3958 9.74526 22.3958C9.03486 22.3958 8.35355 22.1135 7.85122 21.6112C7.34889 21.1089 7.06669 20.4276 7.06669 19.7172ZM19.1203 18.3779C18.7651 18.3779 18.4244 18.519 18.1732 18.7702C17.9221 19.0213 17.781 19.362 17.781 19.7172C17.781 20.0724 17.9221 20.413 18.1732 20.6642C18.4244 20.9154 18.7651 21.0565 19.1203 21.0565C19.4755 21.0565 19.8161 20.9154 20.0673 20.6642C20.3184 20.413 20.4595 20.0724 20.4595 19.7172C20.4595 19.362 20.3184 19.0213 20.0673 18.7702C19.8161 18.519 19.4755 18.3779 19.1203 18.3779ZM16.4417 19.7172C16.4417 19.0068 16.7239 18.3255 17.2262 17.8231C17.7286 17.3208 18.4099 17.0386 19.1203 17.0386C19.8307 17.0386 20.512 17.3208 21.0143 17.8231C21.5166 18.3255 21.7988 19.0068 21.7988 19.7172C21.7988 20.4276 21.5166 21.1089 21.0143 21.6112C20.512 22.1135 19.8307 22.3958 19.1203 22.3958C18.4099 22.3958 17.7286 22.1135 17.2262 21.6112C16.7239 21.1089 16.4417 20.4276 16.4417 19.7172Z" fill="#BFA054"/>
</g>
<defs>
<clipPath id="clip0_731_440">
<rect width="25" height="25" fill="white"/>
</clipPath>
</defs>
</svg>
