<svg width="25" height="25" viewBox="0 0 25 25" fill="none" xmlns="http://www.w3.org/2000/svg">
<g clip-path="url(#clip0_729_380)">
<path fill-rule="evenodd" clip-rule="evenodd" d="M3.04895 4.31539C3.04895 4.13779 3.1195 3.96747 3.24508 3.84189C3.37067 3.7163 3.54099 3.64575 3.71859 3.64575H5.72752C5.87689 3.64579 6.02196 3.69578 6.13966 3.78775C6.25736 3.87972 6.34093 4.00841 6.37708 4.15334L6.91949 6.32432H22.4686C22.5703 6.32435 22.6707 6.34755 22.7621 6.39216C22.8535 6.43677 22.9336 6.50162 22.9962 6.58179C23.0588 6.66195 23.1023 6.75533 23.1234 6.85482C23.1446 6.95432 23.1428 7.05733 23.1181 7.15602L21.1092 15.1917C21.0731 15.3367 20.9895 15.4654 20.8718 15.5573C20.7541 15.6493 20.609 15.6993 20.4597 15.6993H8.40609C8.25672 15.6993 8.11165 15.6493 7.99395 15.5573C7.87626 15.4654 7.79269 15.3367 7.75654 15.1917L5.2052 4.98504H3.71859C3.54099 4.98504 3.37067 4.91449 3.24508 4.7889C3.1195 4.66332 3.04895 4.493 3.04895 4.31539ZM7.25431 7.66361L8.92841 14.36H19.9373L21.6115 7.66361H7.25431ZM9.74538 18.3779C9.39018 18.3779 9.04953 18.519 8.79836 18.7702C8.5472 19.0213 8.40609 19.362 8.40609 19.7172C8.40609 20.0724 8.5472 20.413 8.79836 20.6642C9.04953 20.9154 9.39018 21.0565 9.74538 21.0565C10.1006 21.0565 10.4412 20.9154 10.6924 20.6642C10.9436 20.413 11.0847 20.0724 11.0847 19.7172C11.0847 19.362 10.9436 19.0213 10.6924 18.7702C10.4412 18.519 10.1006 18.3779 9.74538 18.3779ZM7.06681 19.7172C7.06681 19.0068 7.34901 18.3255 7.85134 17.8231C8.35367 17.3208 9.03498 17.0386 9.74538 17.0386C10.4558 17.0386 11.1371 17.3208 11.6394 17.8231C12.1417 18.3255 12.424 19.0068 12.424 19.7172C12.424 20.4276 12.1417 21.1089 11.6394 21.6112C11.1371 22.1135 10.4558 22.3958 9.74538 22.3958C9.03498 22.3958 8.35367 22.1135 7.85134 21.6112C7.34901 21.1089 7.06681 20.4276 7.06681 19.7172ZM19.1204 18.3779C18.7652 18.3779 18.4245 18.519 18.1734 18.7702C17.9222 19.0213 17.7811 19.362 17.7811 19.7172C17.7811 20.0724 17.9222 20.413 18.1734 20.6642C18.4245 20.9154 18.7652 21.0565 19.1204 21.0565C19.4756 21.0565 19.8162 20.9154 20.0674 20.6642C20.3186 20.413 20.4597 20.0724 20.4597 19.7172C20.4597 19.362 20.3186 19.0213 20.0674 18.7702C19.8162 18.519 19.4756 18.3779 19.1204 18.3779ZM16.4418 19.7172C16.4418 19.0068 16.724 18.3255 17.2263 17.8231C17.7287 17.3208 18.41 17.0386 19.1204 17.0386C19.8308 17.0386 20.5121 17.3208 21.0144 17.8231C21.5167 18.3255 21.799 19.0068 21.799 19.7172C21.799 20.4276 21.5167 21.1089 21.0144 21.6112C20.5121 22.1135 19.8308 22.3958 19.1204 22.3958C18.41 22.3958 17.7287 22.1135 17.2263 21.6112C16.724 21.1089 16.4418 20.4276 16.4418 19.7172Z" fill="black"/>
</g>
<defs>
<clipPath id="clip0_729_380">
<rect width="25" height="25" fill="white"/>
</clipPath>
</defs>
</svg>
