<svg width="25" height="25" viewBox="0 0 25 25" fill="none" xmlns="http://www.w3.org/2000/svg">
<path fill-rule="evenodd" clip-rule="evenodd" d="M14.2885 15.9285C15.5426 15.9285 16.5635 16.942 16.5635 18.1878V21.392C16.5635 21.6597 16.778 21.8743 17.053 21.8806H19.0385C20.603 21.8806 21.8749 20.6243 21.8749 19.0806V9.99305C21.8676 9.4618 21.6145 8.9618 21.1801 8.62951L14.3124 3.15243C13.3905 2.42222 12.101 2.42222 11.176 3.15451L4.35513 8.62743C3.90409 8.97013 3.65096 9.47013 3.64575 10.0108V19.0806C3.64575 20.6243 4.91763 21.8806 6.48221 21.8806H8.48638C8.76867 21.8806 8.99784 21.6566 8.99784 21.3816C8.99784 21.3212 9.00513 21.2608 9.01763 21.2035V18.1878C9.01763 16.9493 10.0322 15.9368 11.277 15.9285H14.2885ZM19.0385 23.4431H17.0343C15.8864 23.416 15.001 22.5149 15.001 21.392V18.1878C15.001 17.8035 14.6812 17.491 14.2885 17.491H11.2822C10.8978 17.493 10.5801 17.8066 10.5801 18.1878V21.3816C10.5801 21.4597 10.5697 21.5347 10.5478 21.6056C10.4353 22.6368 9.55408 23.4431 8.48638 23.4431H6.48221C4.05617 23.4431 2.08325 21.4858 2.08325 19.0806V10.0035C2.09367 8.96805 2.57075 8.02013 3.39471 7.39617L10.202 1.93263C11.701 0.745134 13.7895 0.745134 15.2853 1.93055L22.1416 7.3993C22.9468 8.01284 23.4239 8.95868 23.4374 9.98159V19.0806C23.4374 21.4858 21.4645 23.4431 19.0385 23.4431Z" fill="black"/>
</svg>
