<svg width="24" height="24" viewBox="0 0 24 24" fill="none" xmlns="http://www.w3.org/2000/svg">
<path d="M12 2C17.5228 2 22 6.47715 22 12C22 17.5228 17.5228 22 12 22C6.47715 22 2 17.5228 2 12C2 6.47715 6.47715 2 12 2ZM12 3.53809C7.32682 3.53809 3.53809 7.32682 3.53809 12C3.53809 16.6732 7.32682 20.4619 12 20.4619C16.6732 20.4619 20.4619 16.6732 20.4619 12C20.4619 7.32682 16.6732 3.53809 12 3.53809ZM14.2764 8.37891C14.5767 8.07879 15.0639 8.07877 15.3643 8.37891C15.6646 8.67923 15.6644 9.16638 15.3643 9.4668L12.8311 12L15.3643 14.5332C15.6646 14.8336 15.6646 15.3207 15.3643 15.6211C15.0639 15.9213 14.5767 15.9214 14.2764 15.6211L11.7432 13.0879L9.20996 15.6211C8.90952 15.9211 8.42233 15.9214 8.12207 15.6211C7.822 15.3208 7.82217 14.8336 8.12207 14.5332L10.6553 12L8.12207 9.4668C7.82218 9.16643 7.82203 8.67918 8.12207 8.37891C8.42233 8.07865 8.90952 8.07894 9.20996 8.37891L11.7432 10.9121L14.2764 8.37891Z" fill="white"/>
</svg>
